<svg width="83" height="20" viewBox="0 0 83 20" fill="none" xmlns="http://www.w3.org/2000/svg">
    <path d="M26.3633 19.2993C26.1336 19.2993 25.934 19.261 25.7645 19.1842C25.5949 19.1075 25.4555 19.002 25.3461 18.8677C25.2409 18.7292 25.1739 18.5693 25.1452 18.388H25.123C24.9761 18.6949 24.7665 18.9252 24.4942 19.0789C24.2219 19.2326 23.9113 19.3094 23.5624 19.3094C23.2516 19.3094 22.9724 19.2568 22.7248 19.1514C22.4771 19.042 22.2824 18.886 22.1405 18.6833C22.0029 18.4807 21.934 18.2395 21.934 17.9598C21.934 17.6316 22.0172 17.3663 22.1835 17.1636C22.3499 16.9569 22.592 16.7997 22.9096 16.692C23.2274 16.5842 23.6209 16.5303 24.0901 16.5303H25.0796V16.0584C25.0796 15.7363 24.9904 15.4911 24.812 15.3227C24.6336 15.1544 24.3756 15.0702 24.0379 15.0702C23.7476 15.0702 23.4859 15.1331 23.2527 15.259C23.0196 15.3807 22.8532 15.5542 22.7535 15.7795H21.8877C21.9738 15.3869 22.1898 15.0803 22.5355 14.8596C22.8855 14.6348 23.3455 14.5224 23.9155 14.5224C24.6264 14.5224 25.1675 14.6858 25.5389 15.0128C25.9103 15.3355 26.096 15.7893 26.096 16.3741V18.6528H26.6451V19.2993H26.3633ZM23.6587 18.7108C23.9299 18.7108 24.173 18.6528 24.3881 18.5369C24.6033 18.421 24.7697 18.2615 24.8875 18.0588C25.0053 17.8561 25.0643 17.6293 25.0643 17.3785V17.0371H24.2249C23.8066 17.0371 23.4939 17.104 23.2868 17.2377C23.0798 17.3714 22.9762 17.5685 22.9762 17.8288C22.9762 18.0681 23.0635 18.2539 23.2382 18.3861C23.4166 18.5159 23.6401 18.5809 23.9073 18.5809L23.6587 18.7108Z" fill="#00C78B"/>
    <path d="M29.8431 19.3094C29.4512 19.3094 29.0954 19.2198 28.7757 19.0408C28.456 18.8575 28.2021 18.5933 28.0142 18.2483C27.8262 17.9032 27.7323 17.4885 27.7323 17.0044V16.8202C27.7323 16.3078 27.8283 15.8778 28.0202 15.5296C28.2162 15.1774 28.478 14.9115 28.8058 14.7313C29.1336 14.5511 29.4921 14.461 29.8818 14.461C30.3082 14.461 30.6686 14.5521 30.9638 14.7334C31.2587 14.9108 31.4834 15.1583 31.6387 15.476C31.7953 15.7895 31.8739 16.1509 31.8752 16.5589H30.9638C30.9531 16.2428 30.8581 15.9894 30.6788 15.7989C30.5034 15.6043 30.239 15.507 29.8848 15.507C29.4817 15.507 29.1693 15.6442 28.9489 15.9184C28.7325 16.1885 28.6234 16.573 28.6234 17.0715V17.2579C28.6234 17.7523 28.7336 18.1346 28.9529 18.4047C29.1733 18.6749 29.49 18.81 29.9011 18.81C30.2392 18.81 30.4953 18.7148 30.6686 18.5242C30.8459 18.3337 30.9429 18.0742 30.9597 17.7457H31.8732C31.8619 18.1493 31.7833 18.5067 31.6387 18.8181C31.4941 19.1255 31.277 19.3647 30.9866 19.5338C30.6972 19.7171 30.3246 19.809 29.8428 19.809L29.8431 19.3094Z" fill="#00C78B"/>
    <path d="M35.8022 19.2996H34.9112V11.3926H35.8022V19.2996Z" fill="#00C78B"/>
    <path d="M39.7464 19.2996H38.8545V14.6812H39.7464V19.2996ZM38.7857 13.2204C38.7857 13.0626 38.8342 12.9288 38.9303 12.8195C39.0302 12.7102 39.1712 12.6556 39.3524 12.6556C39.5296 12.6556 39.6675 12.7102 39.7666 12.8195C39.8695 12.9288 39.9207 13.0626 39.9207 13.2204C39.9207 13.374 39.8695 13.5029 39.7666 13.6071C39.6675 13.7074 39.5296 13.7574 39.3524 13.7574C39.1712 13.7574 39.0302 13.7074 38.9303 13.6071C38.8342 13.5029 38.7857 13.374 38.7857 13.2204Z" fill="#00C78B"/>
    <path d="M44.4471 19.2993V11.0879H47.1539C47.8274 11.0879 48.3878 11.2191 48.8376 11.4813C49.2913 11.7396 49.634 12.1009 49.8655 12.5663C50.0975 13.0276 50.2133 13.5675 50.2133 14.1858V15.7714C50.2133 16.4141 50.0975 16.9722 49.8655 17.4458C49.634 17.9153 49.2892 18.2807 48.8314 18.5419C48.3774 18.803 47.8099 18.9337 47.1292 18.9337H45.3382V19.2997H44.4471V19.2993ZM45.3384 18.0036H47.1046C47.6611 18.0036 48.1191 17.9022 48.4784 17.6992C48.8378 17.4963 49.1048 17.2073 49.2798 16.8325C49.4589 16.4532 49.5481 16.0173 49.5481 15.5241V14.4125C49.5481 13.9488 49.4589 13.5362 49.2798 13.1747C49.1048 12.8133 48.8398 12.5345 48.4866 12.3381C48.1334 12.1417 47.6877 12.0436 47.1539 12.0436H45.3386L45.3384 18.0036Z" fill="#00C78B"/>
    <path d="M53.2711 19.3094C52.7983 19.3094 52.3951 19.2177 52.0626 19.0347C51.73 18.8516 51.4782 18.5863 51.3068 18.2402C51.1395 17.8941 51.0552 17.4804 51.0552 16.9984V16.8283C51.0552 16.3219 51.1384 15.8939 51.3035 15.545C51.4737 15.1961 51.7245 14.9285 52.0559 14.742C52.3875 14.555 52.7816 14.461 53.238 14.461C53.7148 14.461 54.1212 14.5535 54.4579 14.7385C54.7945 14.9235 55.0514 15.1896 55.228 15.5368C55.4089 15.884 55.4996 16.3048 55.4996 16.8001V17.2256H51.8887V16.3976H54.6167V16.3127C54.6044 16.0203 54.5291 15.7592 54.3908 15.5297C54.2562 15.3001 54.0692 15.1189 53.8303 14.9867C53.5918 14.8503 53.3163 14.7823 53.0057 14.7823C52.6539 14.7823 52.3548 14.8645 52.1085 15.0292C51.8622 15.1898 51.6711 15.4127 51.5345 15.6985C51.4022 15.9802 51.3359 16.3149 51.3359 16.7024V16.8402C51.3359 17.2236 51.4063 17.557 51.5473 17.8388C51.6919 18.1164 51.8911 18.3321 52.1447 18.4858C52.4025 18.6395 52.6988 18.7163 53.0346 18.7163C53.3248 18.7163 53.5762 18.6639 53.7893 18.5577C54.0039 18.4473 54.1785 18.2985 54.3148 18.1083H55.0856C54.9781 18.3605 54.8272 18.5821 54.6332 18.7741C54.4393 18.962 54.2058 19.1083 53.9324 19.2126C53.659 19.3169 53.3452 19.3694 52.9906 19.3694L53.2711 19.3094Z" fill="#00C78B"/>
    <path d="M61.4049 14.6812L59.3063 19.2996H58.4133L56.2959 14.6812H57.2429L58.8496 18.4675H58.8711L60.4778 14.6812H61.4049Z" fill="#00C78B"/>
    <path d="M63.1396 17.9498C63.1396 17.5827 63.2268 17.2766 63.4011 17.0312C63.5756 16.7859 63.8526 16.6066 64.2322 16.493L65.8257 15.9777C66.1055 15.8923 66.2817 15.7835 66.3534 15.651C66.425 15.5147 66.461 15.3385 66.461 15.1225C66.461 14.9228 66.4188 14.7497 66.3329 14.6017C66.2504 14.4536 66.1306 14.3371 65.9745 14.2517C65.8183 14.1664 65.6257 14.1232 65.3993 14.1232C65.1359 14.1232 64.908 14.1726 64.7161 14.2722C64.5241 14.3677 64.3824 14.4966 64.2926 14.6586C64.207 14.8166 64.1639 14.9948 64.1639 15.1916H63.2842C63.2842 14.8409 63.3734 14.5227 63.5518 14.2374C63.7303 13.952 63.9841 13.7291 64.3132 13.5686C64.6428 13.4082 65.0315 13.3281 65.4803 13.3281C65.9162 13.3281 66.2918 13.4112 66.6073 13.5779C66.9229 13.7406 67.1635 13.9635 67.3297 14.2477C67.4962 14.528 67.5796 14.8451 67.5796 15.2C67.5796 15.5466 67.4763 15.8363 67.2695 16.0692C67.0627 16.3021 66.7216 16.4922 66.2465 16.6383L64.977 17.0597C64.7744 17.125 64.6097 17.2064 64.4833 17.3037C64.3592 17.4011 64.2721 17.5085 64.2219 17.627C64.1716 17.7413 64.1465 17.8633 64.1465 17.9907H67.3174V18.8187H63.1396V17.9498Z" fill="#00C78B"/>
    <path d="M6.87 0.566536C4.50264 0.561661 2.20833 1.39094 0.428406 2.89804L0.454666 2.93011C0.454666 2.93011 0.457673 2.93011 0.463689 2.93011C3.84363 4.77818 5.36348 7.70214 5.84 10.267C6.04885 11.1708 6.08777 12.111 5.95461 13.0316C5.49297 14.4608 4.23697 15.6235 2.39771 16.5151C4.50113 18.2732 7.34243 17.843 8.9 17.4662C10.2367 16.6765 11.3392 15.5578 12.1027 14.2238C13.4063 11.8972 13.5427 9.13104 12.4643 6.69325C11.3862 4.25547 9.21517 2.38104 6.61857 1.50896L6.87 0.566536Z" fill="#00C78B"/>
    <path d="M6.71318 13.2834C6.99211 12.322 7.05107 11.3029 6.87826 10.3036C6.53626 8.46436 5.36256 6.50525 2.9425 5.10264C1.26962 6.61957 0.332031 8.80636 0.332031 11.1021C0.332031 11.5714 0.368508 12.0342 0.437695 12.4899C0.546367 12.5157 0.655039 12.5285 0.766719 12.5285C1.12326 12.5285 1.44538 12.374 1.65424 12.1394C1.7659 12.2266 1.91073 12.2652 2.05355 12.2652C2.43316 12.2652 2.77316 11.9972 2.84519 11.6486C2.86506 11.5842 2.87896 11.5134 2.87896 11.4427C2.87896 11.2754 2.83004 11.1209 2.7421 10.9922C2.85476 11.0244 2.9734 11.0436 3.09603 11.0436C3.66537 11.0436 4.12701 10.6436 4.20704 10.1114C4.21897 10.0407 4.2259 9.96297 4.2259 9.88226C4.2259 9.46862 4.02502 9.10069 3.72022 8.87523C4.12603 8.86022 4.52553 8.71941 4.83831 8.45591C5.23283 8.1177 5.46155 7.61863 5.46155 7.05793C5.46155 6.97424 5.45462 6.89354 5.44169 6.80984C5.28995 5.96127 4.52852 5.36152 3.65494 5.36152C3.41529 5.36152 3.18054 5.41137 2.97067 5.50202C3.24761 4.80184 3.8766 4.27972 4.65594 4.15898C4.72297 4.14893 4.79199 4.14198 4.86001 4.14198C5.33954 4.14198 5.75792 4.33377 6.02587 4.64705C5.62736 5.20278 5.58144 5.9654 5.93344 6.58222C6.19341 7.0047 6.62215 7.29812 7.12425 7.31313C7.14112 7.31313 7.158 7.31511 7.17587 7.31511C7.23292 7.31511 7.28897 7.31113 7.34503 7.30517C7.89848 7.24228 8.32423 6.82367 8.39627 6.29558C8.4032 6.23766 8.40914 6.17576 8.40914 6.11685C8.40914 5.40563 7.77813 4.82795 7.01866 4.82795C7.01866 4.82795 7.01866 4.82795 7.01767 4.82795C7.58402 4.32193 8.30318 4.01958 9.08849 4.01958C9.25714 4.01958 9.4218 4.03758 9.58349 4.06857C7.7412 6.28256 7.20562 9.64479 6.71318 13.2834Z" fill="#00C78B"/>
    <path d="M79.8326 16.5151C77.9934 15.6235 76.7373 14.4608 76.2757 13.0316C76.1425 12.111 76.1814 11.1708 76.3903 10.267C76.8668 7.70214 78.3866 4.77818 81.7666 2.93011C81.7726 2.93011 81.7756 2.93011 81.7756 2.93011L81.802 2.89804C80.022 1.39094 77.7277 0.561661 75.3603 0.566536L75.6118 1.50896C73.0151 2.38104 70.8441 4.25547 69.766 6.69325C68.6877 9.13104 68.8241 11.8972 70.1277 14.2238C70.8911 15.5578 71.9937 16.6765 73.3303 17.4662C74.888 17.843 77.7293 18.2732 79.8326 16.5151Z" fill="#00C78B"/>
    <path d="M75.3472 4.06857C75.5089 4.03758 75.6736 4.01958 75.8422 4.01958C76.6275 4.01958 77.3467 4.32193 77.913 4.82795C77.912 4.82795 77.912 4.82795 77.912 4.82795C77.1525 4.82795 76.5215 5.40563 76.5215 6.11685C76.5215 6.17576 76.5275 6.23766 76.5344 6.29558C76.6065 6.82367 77.0322 7.24228 77.5857 7.30517C77.6417 7.31113 77.6978 7.31511 77.7548 7.31511C77.7726 7.31511 77.7895 7.31313 77.8064 7.31313C78.3085 7.29812 78.7373 7.0047 78.9972 6.58222C79.3492 5.9654 79.3034 5.20278 78.9048 4.64705C79.1728 4.33377 79.5912 4.14198 80.0707 4.14198C80.1387 4.14198 80.2077 4.14893 80.2748 4.15898C81.0541 4.27972 81.6831 4.80184 81.9601 5.50202C81.7502 5.41137 81.5154 5.36152 81.2757 5.36152C80.4022 5.36152 79.6408 5.96127 79.489 6.80984C79.4761 6.89354 79.4691 6.97424 79.4691 7.05793C79.4691 7.61863 79.6979 8.1177 80.0924 8.45591C80.4051 8.71941 80.8046 8.86022 81.2105 8.87523C80.9056 9.10069 80.7047 9.46862 80.7047 9.88226C80.7047 9.96297 80.7116 10.0407 80.7237 10.1114C80.8037 10.6436 81.2653 11.0436 81.8348 11.0436C81.9572 11.0436 82.0759 11.0244 82.1886 10.9922C82.1006 11.1209 82.0517 11.2754 82.0517 11.4427C82.0517 11.5134 82.0656 11.5842 82.0855 11.6486C82.1575 11.9972 82.4975 12.2652 82.8771 12.2652C83.0199 12.2652 83.1648 12.2266 83.2765 12.1394C83.4853 12.374 83.8075 12.5285 84.1641 12.5285C84.2757 12.5285 84.3843 12.5157 84.493 12.4899C84.5622 12.0342 84.5988 11.5714 84.5988 11.1021C84.5988 8.80636 83.6612 6.61957 81.9883 5.10264C79.5683 6.50525 78.3945 8.46436 78.0525 10.3036C77.8797 11.3029 77.9387 12.322 78.2176 13.2834C77.7252 9.64479 77.1896 6.28256 75.3472 4.06857Z" fill="#00C78B"/>
    <path d="M73.5215 13.1974C71.6414 11.0916 70.7178 8.37002 70.7178 5.52146C70.7178 5.17325 70.7347 4.82602 70.7687 4.47978C73.2225 8.20936 73.4175 10.7599 73.5215 13.1974Z" fill="#00C78B"/>
    <path d="M13.2125 5.52146C13.2125 8.37002 12.2889 11.0916 10.4088 13.1974C10.5128 10.7599 10.7078 8.20936 13.1616 4.47978C13.1956 4.82602 13.2125 5.17325 13.2125 5.52146Z" fill="#00C78B"/>
</svg> 