<svg xmlns="http://www.w3.org/2000/svg" viewBox="0 0 144 144" width="144" height="144">
  <circle cx="72" cy="72" r="72" fill="#0C4CA3"/>
  <path fill="#FFD700" d="M72 8c-35.35 0-64 28.65-64 64s28.65 64 64 64 64-28.65 64-64S107.35 8 72 8zm0 120c-30.88 0-56-25.12-56-56s25.12-56 56-56 56 25.12 56 56-25.12 56-56 56z"/>
  <path fill="#FFD700" d="M72 24c-26.47 0-48 21.53-48 48s21.53 48 48 48 48-21.53 48-48S98.47 24 72 24zm0 88c-22.06 0-40-17.94-40-40s17.94-40 40-40 40 17.94 40 40-17.94 40-40 40z"/>
  <path fill="#FFD700" d="M72 40c-17.65 0-32 14.35-32 32s14.35 32 32 32 32-14.35 32-32S89.65 40 72 40zm0 56c-13.23 0-24-10.77-24-24s10.77-24 24-24 24 10.77 24 24-10.77 24-24 24z"/>
  <text x="72" y="80" font-family="Arial" font-weight="bold" font-size="32" fill="#FFD700" text-anchor="middle">F</text>
</svg> 