<svg xmlns="http://www.w3.org/2000/svg" viewBox="0 0 200 200" width="200" height="200">
  <circle cx="100" cy="100" r="95" fill="#0B1560"/>
  <path fill="#FFD700" d="M100 14c-47.42 0-86 38.58-86 86s38.58 86 86 86 86-38.58 86-86-38.58-86-86-86zm0 164c-43.01 0-78-34.99-78-78s34.99-78 78-78 78 34.99 78 78-34.99 78-78 78z"/>
  <circle cx="100" cy="100" r="60" fill="#0B1560"/>
  <path fill="#FFD700" d="M100 46c-29.78 0-54 24.22-54 54s24.22 54 54 54 54-24.22 54-54-24.22-54-54-54zm0 100c-25.36 0-46-20.64-46-46s20.64-46 46-46 46 20.64 46 46-20.64 46-46 46z"/>
  <path fill="#FFD700" d="M137.5 92h-30V62h-15v30h-30v15h30v30h15v-30h30z"/>
  <path fill="#FFD700" d="M70 80.5l5-3.5h50l5 3.5v40l-5 3.5H75l-5-3.5z"/>
</svg> 