<svg xmlns="http://www.w3.org/2000/svg" viewBox="0 0 144 144" width="144" height="144">
  <path fill="#ED1B24" d="M72 0C32.21 0 0 32.21 0 72s32.21 72 72 72 72-32.21 72-72S111.79 0 72 0"/>
  <path fill="#FFF" d="M63.14 19.75h14.63v15.42H63.14z"/>
  <path fill="#FFF" d="M103.46 35.95L84.8 54.61h16.91l20.25-20.25-18.5 1.59zM39.45 35.95L58.1 54.61H41.2L20.95 34.36l18.5 1.59z"/>
  <path fill="#FFF" d="M31.15 54.61H49.8l-16.9 16.9H14.03l17.12-16.9zM111.75 54.61H93.11l16.9 16.9h18.86l-17.12-16.9z"/>
  <path fill="#FFF" d="M31.15 90.18H49.8l-16.9-16.9H14.03l17.12 16.9zM111.75 90.18H93.11l16.9-16.9h18.86l-17.12 16.9z"/>
  <path fill="#FFF" d="M103.46 108.84L84.8 90.18h16.91l20.25 20.25-18.5-1.59zM39.45 108.84L58.1 90.18H41.2l-20.25 20.25 18.5-1.59z"/>
  <path fill="#FFF" d="M63.14 108.84h14.63V93.42H63.14z"/>
  <path fill="#FFF" d="M42.74 54.61L60.63 72.5 42.74 90.18V54.61zM98.16 54.61L80.28 72.5l17.88 17.68V54.61z"/>
  <text x="72" y="75" fill="#FFF" font-family="Arial" font-weight="bold" font-size="24" text-anchor="middle">ะก</text>
</svg> 