<svg xmlns="http://www.w3.org/2000/svg" viewBox="0 0 200 200" width="200" height="200">
  <circle cx="100" cy="100" r="95" fill="#e30613"/>
  <path fill="#FFFFFF" d="M100 14c-47.52 0-86 38.48-86 86s38.48 86 86 86 86-38.48 86-86-38.48-86-86-86zm0 159.53c-40.61 0-73.53-32.92-73.53-73.53S59.39 26.47 100 26.47s73.53 32.92 73.53 73.53-32.92 73.53-73.53 73.53z"/>
  <path fill="#FFFFFF" d="M149.14 92.84h-23.5l7.17-7.17-7.45-7.45-14.63 14.63h-21.46L89.27 62.7h21.19l19.09 19.09 7.46-7.46-7.46-7.46-14.62-14.62H54.06l44.36 44.36v30.78h3.16v-30.78l44.36-44.36H89.27l14.63 14.63 7.45 7.45-7.17 7.17h23.5l21.46-21.46v53.69l-21.46-21.46h-45.7l7.17 7.17-7.45 7.46-14.63-14.63H54.06v-21.19l-19.09-19.09-7.46 7.46 7.46 7.46 14.62 14.62h60.67l-44.36-44.36V51.73h-3.16v30.78L18.38 126.87h60.67l-14.63-14.63-7.45-7.46 7.17-7.17h-23.5L19.17 118.07V64.38l21.47 21.46h45.7l-7.17-7.17 7.45-7.46 14.63 14.63h11.51v-21.19l19.09-19.09 7.46 7.46-7.46 7.46-14.62 14.62h60.67l-44.36-44.36V51.73h-3.16v30.78l44.36 44.36h-60.67l14.63 14.63 7.45 7.46-7.17 7.17h23.5l21.47-21.47v53.69l-21.46-21.46h-45.7l7.17 7.17-7.45 7.46-14.63-14.63H54.06v-21.19l-19.09-19.09-7.46 7.46 7.46 7.46 14.62 14.62h60.67l-44.36-44.36V92.84z"/>
</svg> 