<svg xmlns="http://www.w3.org/2000/svg" width="100" height="24" viewBox="0 0 100 24">
  <path fill="#00c78b" d="M0 3.8571c0-2.1252 1.6857-3.8571 3.7661-3.8571h10.0982c2.0804 0 3.7661 1.7319 3.7661 3.8571v16.2858c0 2.1252-1.6857 3.8571-3.7661 3.8571H3.7661C1.6857 24 0 22.2681 0 20.1429V3.8571z"/>
  <path fill="#FFF" d="M7.6786 7.9821c.3035-.1607.6607-.2411 1.0714-.2411 1.0357 0 1.5536.7768 1.5536 2.3304 0 1.8393-.5357 2.7589-1.6072 2.7589-.3214 0-.5893-.0893-.8036-.2679v-4.5803zm-2.1607 6.0625c0 .2857.1428.4286.4286.4286h1.0714c.2857 0 .4286-.1429.4286-.4286v-.9911c.5536.3751 1.1786.5625 1.875.5625 1.0179 0 1.8213-.3526 2.4107-1.0579.5893-.7053.8839-1.6697.8839-2.8929 0-1.2232-.2768-2.1785-.8304-2.866-.5536-.6874-1.3303-1.0312-2.3304-1.0312-.75 0-1.4107.1965-1.9821.5893v-3.375c0-.2857-.1429-.4285-.4286-.4285H5.9465c-.2857 0-.4286.1428-.4286.4285v10.9643zm10.6071-.6696c.3393.1786.7143.2679 1.125.2679.9822 0 1.4733-.6696 1.4733-2.0089 0-1.3393-.5179-2.0089-1.5536-2.0089-.4822 0-.8036.0983-.9643.2947v3.4552zm0 2.5714v2.5179c0 .2857-.1428.4286-.4286.4286h-1.1786c-.2857 0-.4286-.1429-.4286-.4286v-9.321c0-.2857.1429-.4286.4286-.4286h1.1786c.2857 0 .4286.1429.4286.4286v.7232c.5-1.0357 1.3125-1.5536 2.4375-1.5536 1.0179 0 1.7946.3214 2.3304.9643.5357.6428.8036 1.5803.8036 2.8125 0 1.2679-.2768 2.2589-.8304 2.9732-.5536.7143-1.3482 1.0714-2.3839 1.0714-.8035 0-1.5-0.2679-2.0893-0.8036v.6358zm12.9107-4.7142c0-1.125-.4732-1.6876-1.4196-1.6876-.9464 0-1.4196.5626-1.4196 1.6876h2.8392zm1.8214 1.5535H28.125c0 .6965.1518 1.2143.4554 1.5536.3035.3393.7768.5089 1.4196.5089 1 0 1.8393-.2411 2.5179-.7232l.2143 1.6071c-.75.5-1.7054.75-2.8661.75-1.2857 0-2.2678-.3482-2.9464-1.0447-.6786-.6964-1.0179-1.6875-1.0179-2.9732s.3304-2.2857.9911-3c.6607-.7143 1.5714-1.0714 2.7321-1.0714 1.0536 0 1.875.3214 2.4643.9643.5892.6428.8839 1.5536.8839 2.7321 0 .4465-.0625.7947-.1875 1.0465zm6.4286 0c0 .5892.1071 1.0267.3214 1.3124.2143.2857.5536.4286 1.0179.4286s.8035-.143 1.0178-.4286c.2143-.2857.3214-.7232.3214-1.3124 0-.5536-.1071-.9643-.3214-1.2322-.2143-.2679-.5535-.4018-1.0178-.4018-.4643 0-.8036.1339-1.0179.4018-.2143.2679-.3214.6786-.3214 1.2322zm4.7143 0c0 1.2679-.2947 2.2678-.8839 3-.5893.7322-1.4196 1.0982-2.4911 1.0982s-1.9018-.3661-2.4911-1.0982c-.5893-.7321-.8839-1.7321-.8839-3s.2946-2.2678.8839-3c.5893-.7321 1.4196-1.0982 2.4911-1.0982s1.9018.3661 2.4911 1.0982c.5893.7322.8839 1.7322.8839 3zm7.1786 3.0536c0 .2857-.1429.4286-.4286.4286h-1.2321c-.2857 0-.4286-.1429-.4286-.4286v-3.9911c0-.625-.0804-1.0625-.2411-1.3125-.1607-.25-.4286-.375-.8036-.375-.6964 0-1.0446.5358-1.0446 1.6072v4.0714c0 .2857-.1429.4286-.4286.4286h-1.2321c-.2857 0-.4286-.1429-.4286-.4286v-6.75c0-.2857.1429-.4286.4286-.4286h1.2321c.2857 0 .4286.1429.4286.4286v.5625c.5179-.7143 1.25-1.0714 2.1964-1.0714 1.9821 0 2.9732 1.1785 2.9732 3.5357v3.7232zm7.0982-1.7678l.3214 1.5c-.75.5-1.6071.75-2.5714.75-.9464 0-1.7053-.3303-2.2768-.9911-.5714-.6607-.8571-1.5446-.8571-2.6517 0-1.3572.3214-2.3661.9643-3.0268.6428-.6607 1.5714-.9911 2.7857-.9911 1 0 1.8036.2143 2.4107.6429l-.3214 1.5536c-.6965-.3929-1.3125-.5894-1.8482-.5894-1.3215 0-1.9821.7679-1.9821 2.3036 0 .75.125 1.2857.375 1.6071.25.3214.625.4822 1.125.4822.6071 0 1.2232-.2054 1.8482-.6161zm6.0892 1.7678c0 .2857-.1428.4286-.4285.4286h-1.2322c-.2857 0-.4286-.1429-.4286-.4286v-3.9911c0-.625-.0803-1.0625-.2411-1.3125-.1607-.25-.4285-.375-.8035-.375-.6965 0-1.0447.5358-1.0447 1.6072v4.0714c0 .2857-.1428.4286-.4285.4286h-1.2322c-.2857 0-.4286-.1429-.4286-.4286V8.9822c0-.2857.1429-.4286.4286-.4286h1.2322c.2857 0 .4285.1429.4285.4286v.5625c.518-.7143 1.25-1.0714 2.1965-1.0714 1.9821 0 2.9732 1.1785 2.9732 3.5357v3.7232zm6.4732-3.0536c0 .5892.1071 1.0267.3214 1.3124.2143.2857.5535.4286 1.0178.4286.4643 0 .8036-.143 1.0179-.4286.2143-.2857.3214-.7232.3214-1.3124 0-.5536-.1071-.9643-.3214-1.2322-.2143-.2679-.5536-.4018-1.0179-.4018-.4643 0-.8035.1339-1.0178.4018-.2143.2679-.3214.6786-.3214 1.2322zm4.7143 0c0 1.2679-.2946 2.2678-.8839 3-.5893.7322-1.4196 1.0982-2.4911 1.0982s-1.9018-.3661-2.4911-1.0982c-.5893-.7321-.8839-1.7321-.8839-3s.2946-2.2678.8839-3c.5893-.7321 1.4196-1.0982 2.4911-1.0982s1.9018.3661 2.4911 1.0982c.5893.7322.8839 1.7322.8839 3zm7.125 3.0536c0 .2857-.1428.4286-.4285.4286h-1.1786c-.2857 0-.4286-.1429-.4286-.4286v-.5357c-.5.6429-1.2143.9643-2.1429.9643-.75 0-1.3661-.2321-1.8482-.6964-.4822-.4643-.7232-1.0625-.7232-1.7946 0-.7857.2946-1.3928.8839-1.8214.5893-.4286 1.4197-.6429 2.4911-.6429h1.2857v-.3214c0-.9286-.4822-1.3929-1.4464-1.3929-.75 0-1.5804.2233-2.4911.6696l-.3214-1.4464c1-.5179 2.0714-.7768 3.2143-.7768 1.0714 0 1.8839.25 2.4375.75.5535.5.8303 1.2233.8303 2.1697v4.8969zm-2.1429-2.8928v-.75h-.9107c-1.125 0-1.6875.3661-1.6875 1.0982 0 .3214.0982.5714.2946.75.1965.1785.4644.2678.8036.2678.3393 0 .6607-.125.9643-.375.3035-.25.4553-.5804.4553-.9911z"/>
</svg> 