<svg xmlns="http://www.w3.org/2000/svg" width="140" height="40" viewBox="0 0 140 40" fill="none">
  <path d="M10 5C10 5 10 25 10 30C10 35 15 38 20 38C25 38 30 35 30 30C30 25 30 5 30 5H10Z" fill="#00B6C1"/>
  <path d="M15 10H25V18H20C17.5 18 15 20 15 22.5C15 25 17.5 27 20 27H25V32H15V10Z" fill="white"/>
  <path d="M20 22H25V27H20C18.5 27 17 25.5 17 24.5C17 23.5 18.5 22 20 22Z" fill="#00B6C1"/>
  <path d="M45 12H51C54.5 12 56 14 56 16.5C56 19 54.5 21 51 21H48V28H45V12ZM51 18C52.3 18 53 17.3 53 16.5C53 15.7 52.3 15 51 15H48V18H51Z" fill="black"/>
  <path d="M58 12H65C69.5 12 73 15.5 73 20C73 24.5 69.5 28 65 28H58V12ZM65 25C67.8 25 70 22.8 70 20C70 17.2 67.8 15 65 15H61V25H65Z" fill="black"/>
  <path d="M75 12H81V21H88V12H94V28H88V24H81V28H75V12Z" fill="black"/>
  <path d="M106 12H114C117.3 12 120 14.7 120 18C120 21.3 117.3 24 114 24H109V28H106V12ZM113.5 21C115.4 21 117 19.7 117 18C117 16.3 115.4 15 113.5 15H109V21H113.5Z" fill="black"/>
  <path d="M122 12H125V28H122V12Z" fill="black"/>
  <path d="M127 12H131L138 21V12H141V28H138L130 18V28H127V12Z" fill="black"/>
</svg> 