<svg xmlns="http://www.w3.org/2000/svg" width="76" height="24" viewBox="0 0 76 24" fill="none">
  <path d="M72.4661 0H3.53386C1.58168 0 0 1.58168 0 3.53386V20.4661C0 22.4183 1.58168 24 3.53386 24H72.4661C74.4183 24 76 22.4183 76 20.4661V3.53386C76 1.58168 74.4183 0 72.4661 0Z" fill="#192735"/>
  <path d="M15.0264 5.33398H11.9329V19.3321H15.0264V5.33398Z" fill="#FFCC01"/>
  <path d="M25.2128 5.33398H22.0781V12.3329H25.2128V5.33398Z" fill="#FFCC01"/>
  <path d="M25.2128 14.2002H22.0781V19.333H25.2128V14.2002Z" fill="#FFCC01"/>
  <path d="M53.8193 5.33398H50.6846V10.4668H53.8193V5.33398Z" fill="#FFCC01"/>
  <path d="M53.8193 12.333H50.6846V19.333H53.8193V12.333Z" fill="#FFCC01"/>
  <path d="M20.1995 5.33398H17.0648V19.3321H20.1995V5.33398Z" fill="#FFCC01"/>
  <path d="M35.4102 5.33398H32.2754V19.3321H35.4102V5.33398Z" fill="#FFCC01"/>
  <path d="M40.5779 5.33398H37.4434V19.3321H40.5779V5.33398Z" fill="#FFCC01"/>
  <path d="M30.3915 5.33398H27.2568V19.3321H30.3915V5.33398Z" fill="#FFCC01"/>
  <path d="M48.8182 5.33398H45.6836V19.3321H48.8182V5.33398Z" fill="#FFCC01"/>
  <path d="M64.0054 5.33398H60.8691V19.3321H64.0054V5.33398Z" fill="#FFCC01"/>
  <path d="M58.9956 5.33398H55.8594V19.3321H58.9956V5.33398Z" fill="#FFCC01"/>
</svg> 