<svg width="57" height="24" viewBox="0 0 57 24" fill="none" xmlns="http://www.w3.org/2000/svg">
    <path fill-rule="evenodd" clip-rule="evenodd" d="M49.2533 0.0600586H8.31323C3.7213 0.0600586 0 3.78136 0 8.37329V16.1869C0 20.7788 3.7213 24.5001 8.31323 24.5001H49.2533C53.8452 24.5001 57.5665 20.7788 57.5665 16.1869V8.37329C57.5665 3.78136 53.8452 0.0600586 49.2533 0.0600586Z" fill="#2A2D31"/>
    <path d="M11.0513 17.0161H9.67134C8.67835 17.0161 7.87134 16.2091 7.87134 15.2161V7.84613C7.87134 6.85313 8.67835 6.04613 9.67134 6.04613H12.8513C14.8373 6.04613 16.4513 7.65913 16.4513 9.64613C16.4513 11.6321 14.8373 13.2461 12.8513 13.2461H11.0513V17.0161ZM11.0513 10.0461V10.0231H12.8513C13.0373 10.0231 13.1813 9.87913 13.1813 9.69313C13.1813 9.50613 13.0373 9.36313 12.8513 9.36313H11.0513V10.0461Z" fill="white"/>
    <path d="M22.2975 6.03931H20.5215C19.5295 6.03931 18.7215 6.84631 18.7215 7.83931V15.2093C18.7215 16.2023 19.5295 17.0093 20.5215 17.0093H22.2975C25.2825 17.0093 27.7095 14.5823 27.7095 11.5973V11.4523C27.7095 8.46631 25.2825 6.03931 22.2975 6.03931ZM24.4395 11.5963C24.4395 12.7793 23.4805 13.7383 22.2975 13.7383H22.0395V9.45531H22.2975C23.4805 9.45531 24.4395 10.4143 24.4395 11.5963Z" fill="white"/>
    <path d="M34.4979 6.04599H32.3899C31.3979 6.04599 30.5899 6.85399 30.5899 7.84599V17.016H33.8609V13.246H34.4979C36.4839 13.246 38.0979 11.633 38.0979 9.64599C38.0979 7.65899 36.4839 6.04599 34.4979 6.04599ZM34.4979 9.926H33.8609V9.36299H34.4979C34.6839 9.36299 34.8279 9.50599 34.8279 9.69299C34.8279 9.87999 34.6839 9.926 34.4979 9.926Z" fill="white"/>
    <path d="M49.2979 6.04613H41.7379V9.31713H44.2179V17.0161H46.8179V9.31713H49.2979V6.04613Z" fill="white"/>
</svg> 