<svg xmlns="http://www.w3.org/2000/svg" width="120" height="40" viewBox="0 0 120 40" fill="none">
  <rect width="120" height="40" fill="#D50000"/>
  <path d="M15 10L20 30H26L30 16L34 30H40L45 10H39L36 24L32 10H28L24 24L21 10H15Z" fill="white"/>
  <path d="M49 10H55V30H49V10Z" fill="white"/>
  <path d="M60 10H66V16H73V10H79V30H73V22H66V30H60V10Z" fill="white"/>
  <path d="M84 10H90V18L96 10H103L95 19L104 30H97L90 21V30H84V10Z" fill="white"/>
  <path d="M106 10H112V30H106V10Z" fill="white"/>
  <path d="M118 10H124V15.5H130V10H136V30H130V21.5H124V30H118V10Z" fill="white"/>
  <path d="M142 10H148V22L156 10H162V30H156V18L148 30H142V10Z" fill="white"/>
</svg> 