<svg width="80" height="24" viewBox="0 0 80 24" fill="none" xmlns="http://www.w3.org/2000/svg">
  <path d="M74.3243 0H5.67568C2.54054 0 0 2.54054 0 5.67568V18.3243C0 21.4595 2.54054 24 5.67568 24H74.3243C77.4595 24 80 21.4595 80 18.3243V5.67568C80 2.54054 77.4595 0 74.3243 0Z" fill="#D50000"/>
  <path d="M13.1567 18.0541H9.55408L13.3703 5.94595H17.8922L21.7084 18.0541H18.1058L15.6312 8.75676L13.1567 18.0541Z" fill="white"/>
  <path d="M22.1084 18.0541H25.3542V5.94595H22.1084V18.0541Z" fill="white"/>
  <path d="M26.9891 18.0541H30.2349V8.81081H33.0755V5.94595H24.1484V8.81081H26.9891V18.0541Z" fill="white"/>
  <path d="M40.9459 12L38.7567 5.94595H35.2432L39.3513 15.6756V18.0541H42.5405V15.6756L46.6486 5.94595H43.1351L40.9459 12Z" fill="white"/>
  <path d="M53.4325 18.0541H57.7408L61.5027 5.94595H58.3135L55.5865 14.9189L52.8595 5.94595H49.6703L53.4325 18.0541Z" fill="white"/>
  <path d="M69.7945 18.0541H73.0404V5.94595H69.7945V10.6486H66.2811V5.94595H63.0351V18.0541H66.2811V13.5135H69.7945V18.0541Z" fill="white"/>
</svg> 